WorkSans-Light.ufo
<glyph name="plus" format="1">
  <advance width="553"/>
  <unicode hex="002B"/>
  <outline>
    <contour>
      <point x="269" y="574" type="line"/>
      <point x="269" y="88" type="line"/>
      <point x="285" y="88" type="line"/>
      <point x="285" y="574" type="line"/>
    </contour>
    <contour>
      <point x="45" y="340" type="line"/>
      <point x="45" y="326" type="line"/>
      <point x="508" y="326" type="line"/>
      <point x="508" y="340" type="line"/>
    </contour>
  </outline>
</glyph>
<glyph name="hyphen" format="1">
  <advance width="377"/>
  <unicode hex="002D"/>
  <outline>
    <contour>
      <point x="48" y="278" type="line"/>
      <point x="48" y="262" type="line"/>
      <point x="329" y="262" type="line"/>
      <point x="329" y="278" type="line"/>
    </contour>
  </outline>
</glyph>
<glyph name="slash" format="1">
  <advance width="308"/>
  <unicode hex="002F"/>
  <outline>
    <contour>
      <point x="276" y="730" type="line"/>
      <point x="15" y="-70" type="line"/>
      <point x="32" y="-70" type="line"/>
      <point x="293" y="730" type="line"/>
    </contour>
  </outline>
</glyph>
<glyph name="two" format="1">
  <advance width="529"/>
  <unicode hex="0032"/>
  <outline>
    <contour>
      <point x="130" y="670"/>
      <point x="50" y="589"/>
      <point x="44" y="464" type="curve"/>
      <point x="59" y="458" type="line"/>
      <point x="64" y="578"/>
      <point x="139" y="656"/>
      <point x="257" y="656" type="curve" smooth="yes"/>
      <point x="373" y="656"/>
      <point x="445" y="588"/>
      <point x="445" y="475" type="curve" smooth="yes"/>
      <point x="445" y="336"/>
      <point x="287" y="211"/>
      <point x="51" y="14" type="curve"/>
      <point x="68" y="6" type="line"/>
      <point x="311" y="210"/>
      <point x="460" y="328"/>
      <point x="460" y="475" type="curve" smooth="yes"/>
      <point x="460" y="597"/>
      <point x="383" y="670"/>
      <point x="257" y="670" type="curve" smooth="yes"/>
    </contour>
    <contour>
      <point x="99" y="14" type="line"/>
      <point x="51" y="14" type="line"/>
      <point x="51" y="0" type="line"/>
      <point x="99" y="0" type="line"/>
      <point x="489" y="0" type="line"/>
      <point x="489" y="14" type="line"/>
    </contour>
  </outline>
</glyph>
<glyph name="three" format="1">
  <advance width="496"/>
  <unicode hex="0033"/>
  <outline>
    <contour>
      <point x="163" y="670"/>
      <point x="91" y="619"/>
      <point x="62" y="535" type="curve"/>
      <point x="78" y="526" type="line"/>
      <point x="102" y="607"/>
      <point x="168" y="656"/>
      <point x="254" y="656" type="curve" smooth="yes"/>
      <point x="362" y="656"/>
      <point x="427" y="597"/>
      <point x="427" y="498" type="curve" smooth="yes"/>
      <point x="427" y="412"/>
      <point x="375" y="340"/>
      <point x="275" y="340" type="curve" smooth="yes"/>
      <point x="225" y="340" type="line"/>
      <point x="225" y="326" type="line"/>
      <point x="275" y="326" type="line" smooth="yes"/>
      <point x="385" y="326"/>
      <point x="444" y="252"/>
      <point x="444" y="174" type="curve" smooth="yes"/>
      <point x="444" y="66"/>
      <point x="361" y="4"/>
      <point x="259" y="4" type="curve" smooth="yes"/>
      <point x="142" y="4"/>
      <point x="69" y="62"/>
      <point x="51" y="150" type="curve"/>
      <point x="37" y="141" type="line"/>
      <point x="58" y="50"/>
      <point x="137" y="-10"/>
      <point x="259" y="-10" type="curve" smooth="yes"/>
      <point x="369" y="-10"/>
      <point x="460" y="58"/>
      <point x="460" y="172" type="curve" smooth="yes"/>
      <point x="460" y="252"/>
      <point x="400" y="326"/>
      <point x="315" y="332" type="curve"/>
      <point x="315" y="333" type="line"/>
      <point x="398" y="347"/>
      <point x="443" y="416"/>
      <point x="443" y="498" type="curve" smooth="yes"/>
      <point x="443" y="606"/>
      <point x="372" y="670"/>
      <point x="254" y="670" type="curve" smooth="yes"/>
    </contour>
  </outline>
</glyph>
<glyph name="seven" format="1">
  <advance width="432"/>
  <unicode hex="0037"/>
  <outline>
    <contour>
      <point x="255" y="470"/>
      <point x="175" y="256"/>
      <point x="154" y="0" type="curve"/>
      <point x="171" y="0" type="line"/>
      <point x="192" y="265"/>
      <point x="278" y="473"/>
      <point x="439" y="646" type="curve"/>
      <point x="428" y="655" type="line"/>
    </contour>
    <contour>
      <point x="-24" y="660" type="line"/>
      <point x="-24" y="646" type="line"/>
      <point x="439" y="646" type="line"/>
      <point x="439" y="660" type="line"/>
    </contour>
  </outline>
</glyph>
<glyph name="question" format="1">
  <advance width="430"/>
  <unicode hex="003F"/>
  <outline>
    <contour>
      <point x="90" y="670"/>
      <point x="28" y="607"/>
      <point x="11" y="501" type="curve"/>
      <point x="25" y="495" type="line"/>
      <point x="39" y="596"/>
      <point x="96" y="656"/>
      <point x="223" y="656" type="curve" smooth="yes"/>
      <point x="324" y="656"/>
      <point x="397" y="598"/>
      <point x="397" y="501" type="curve" smooth="yes"/>
      <point x="397" y="393"/>
      <point x="349" y="336"/>
      <point x="199" y="290" type="curve"/>
      <point x="199" y="150" type="line"/>
      <point x="215" y="150" type="line"/>
      <point x="215" y="281" type="line"/>
      <point x="355" y="321"/>
      <point x="413" y="389"/>
      <point x="413" y="501" type="curve" smooth="yes"/>
      <point x="413" y="607"/>
      <point x="334" y="670"/>
      <point x="223" y="670" type="curve" smooth="yes"/>
    </contour>
    <component base="period" xOffset="131"/>
  </outline>
</glyph>
<glyph name="B" format="1">
  <advance width="601"/>
  <unicode hex="0042"/>
  <outline>
    <contour>
      <point x="553" y="280"/>
      <point x="477" y="340"/>
      <point x="332" y="340" type="curve" smooth="yes"/>
      <point x="109" y="340" type="line"/>
      <point x="109" y="326" type="line"/>
      <point x="332" y="326" type="line" smooth="yes"/>
      <point x="467" y="326"/>
      <point x="537" y="274"/>
      <point x="537" y="170" type="curve" smooth="yes"/>
      <point x="537" y="67"/>
      <point x="467" y="14"/>
      <point x="332" y="14" type="curve" smooth="yes"/>
      <point x="109" y="14" type="line"/>
      <point x="109" y="0" type="line"/>
      <point x="332" y="0" type="line" smooth="yes"/>
      <point x="477" y="0"/>
      <point x="553" y="58"/>
      <point x="553" y="169" type="curve" smooth="yes"/>
    </contour>
    <contour>
      <point x="100" y="660" type="line"/>
      <point x="100" y="0" type="line"/>
      <point x="116" y="0" type="line"/>
      <point x="116" y="660" type="line"/>
    </contour>
    <contour>
      <point x="534" y="603"/>
      <point x="465" y="660"/>
      <point x="332" y="660" type="curve" smooth="yes"/>
      <point x="109" y="660" type="line"/>
      <point x="109" y="646" type="line"/>
      <point x="332" y="646" type="line" smooth="yes"/>
      <point x="454" y="646"/>
      <point x="518" y="593"/>
      <point x="518" y="492" type="curve" smooth="yes"/>
      <point x="518" y="391"/>
      <point x="454" y="340"/>
      <point x="332" y="340" type="curve" smooth="yes"/>
      <point x="109" y="340" type="line"/>
      <point x="109" y="326" type="line"/>
      <point x="332" y="326" type="line" smooth="yes"/>
      <point x="465" y="326"/>
      <point x="534" y="384"/>
      <point x="534" y="493" type="curve" smooth="yes"/>
    </contour>
  </outline>
</glyph>
<glyph name="C" format="1">
  <advance width="647"/>
  <unicode hex="0043"/>
  <outline>
    <contour>
      <point x="596" y="171" type="line"/>
      <point x="565" y="65"/>
      <point x="476" y="4"/>
      <point x="350" y="4" type="curve" smooth="yes"/>
      <point x="185" y="4"/>
      <point x="73" y="130"/>
      <point x="73" y="330" type="curve" smooth="yes"/>
      <point x="73" y="530"/>
      <point x="184" y="656"/>
      <point x="350" y="656" type="curve" smooth="yes"/>
      <point x="479" y="656"/>
      <point x="558" y="601"/>
      <point x="591" y="489" type="curve"/>
      <point x="606" y="496" type="line"/>
      <point x="573" y="612"/>
      <point x="489" y="670"/>
      <point x="350" y="670" type="curve" smooth="yes"/>
      <point x="174" y="670"/>
      <point x="57" y="539"/>
      <point x="57" y="330" type="curve" smooth="yes"/>
      <point x="57" y="121"/>
      <point x="175" y="-10"/>
      <point x="350" y="-10" type="curve" smooth="yes"/>
      <point x="483" y="-10"/>
      <point x="578" y="54"/>
      <point x="611" y="165" type="curve"/>
    </contour>
    <contour>
      <point x="340" y="660" type="move" name="top"/>
    </contour>
    <contour>
      <point x="357" y="0" type="move" name="bottom"/>
    </contour>
  </outline>
</glyph>
<glyph name="T" format="1">
  <advance width="537"/>
  <unicode hex="0054"/>
  <outline>
    <contour>
      <point x="261" y="653" type="line"/>
      <point x="261" y="0" type="line"/>
      <point x="277" y="0" type="line"/>
      <point x="277" y="653" type="line"/>
    </contour>
    <contour>
      <point x="7" y="660" type="line"/>
      <point x="7" y="646" type="line"/>
      <point x="530" y="646" type="line"/>
      <point x="530" y="660" type="line"/>
    </contour>
    <contour>
      <point x="269" y="371" type="move" name="center"/>
    </contour>
    <contour>
      <point x="273" y="0" type="move" name="bottom"/>
    </contour>
    <contour>
      <point x="269" y="660" type="move" name="top"/>
    </contour>
  </outline>
</glyph>
<glyph name="Z" format="1">
  <advance width="553"/>
  <unicode hex="005A"/>
  <outline>
    <contour>
      <point x="40" y="14" type="line"/>
      <point x="53" y="3" type="line"/>
      <point x="519" y="646" type="line"/>
      <point x="507" y="655" type="line"/>
    </contour>
    <contour>
      <point x="40" y="14" type="line"/>
      <point x="40" y="0" type="line"/>
      <point x="539" y="0" type="line"/>
      <point x="539" y="14" type="line"/>
    </contour>
    <contour>
      <point x="47" y="660" type="line"/>
      <point x="47" y="646" type="line"/>
      <point x="519" y="646" type="line"/>
      <point x="519" y="660" type="line"/>
    </contour>
    <contour>
      <point x="288" y="660" type="move" name="top"/>
    </contour>
  </outline>
</glyph>
<glyph name="bracketleft" format="1">
  <advance width="342"/>
  <unicode hex="005B"/>
  <outline>
    <contour>
      <point x="131" y="730" type="line"/>
      <point x="131" y="-168" type="line"/>
      <point x="146" y="-168" type="line"/>
      <point x="146" y="730" type="line"/>
    </contour>
    <contour>
      <point x="138" y="-154" type="line"/>
      <point x="138" y="-168" type="line"/>
      <point x="312" y="-168" type="line"/>
      <point x="312" y="-154" type="line"/>
    </contour>
    <contour>
      <point x="138" y="730" type="line"/>
      <point x="138" y="716" type="line"/>
      <point x="312" y="716" type="line"/>
      <point x="312" y="730" type="line"/>
    </contour>
  </outline>
</glyph>
<glyph name="d" format="1">
  <advance width="581"/>
  <unicode hex="0064"/>
  <outline>
    <contour>
      <point x="479" y="730" type="line"/>
      <point x="479" y="184" type="line"/>
      <point x="479" y="175" type="line"/>
      <point x="479" y="0" type="line"/>
      <point x="495" y="0" type="line"/>
      <point x="495" y="101" type="line"/>
      <point x="495" y="730" type="line"/>
    </contour>
    <component base="bowl" xOffset="-78"/>
    <contour>
      <point x="296" y="281" type="move" name="center"/>
    </contour>
    <contour>
      <point x="254" y="328" type="move" name="topright"/>
    </contour>
  </outline>
</glyph>
<glyph name="e" format="1">
  <advance width="518"/>
  <unicode hex="0065"/>
  <outline>
    <contour>
      <point x="130" y="510"/>
      <point x="46" y="413"/>
      <point x="46" y="250" type="curve" smooth="yes"/>
      <point x="46" y="87"/>
      <point x="131" y="-10"/>
      <point x="275" y="-10" type="curve" smooth="yes"/>
      <point x="366" y="-10"/>
      <point x="442" y="35"/>
      <point x="477" y="109" type="curve"/>
      <point x="464" y="116" type="line"/>
      <point x="431" y="46"/>
      <point x="359" y="4"/>
      <point x="275" y="4" type="curve" smooth="yes"/>
      <point x="140" y="4"/>
      <point x="62" y="96"/>
      <point x="62" y="250" type="curve" smooth="yes"/>
      <point x="62" y="404"/>
      <point x="139" y="496"/>
      <point x="270" y="496" type="curve" smooth="yes"/>
      <point x="398" y="496"/>
      <point x="467" y="401"/>
      <point x="467" y="244" type="curve" smooth="yes"/>
      <point x="467" y="239" type="line"/>
      <point x="481" y="239" type="line"/>
      <point x="481" y="241"/>
      <point x="481" y="244"/>
      <point x="481" y="246" type="curve" smooth="yes"/>
      <point x="481" y="411"/>
      <point x="402" y="510"/>
      <point x="270" y="510" type="curve" smooth="yes"/>
    </contour>
    <contour>
      <point x="54" y="254" type="line"/>
      <point x="54" y="239" type="line"/>
      <point x="476" y="239" type="line"/>
      <point x="476" y="254" type="line"/>
    </contour>
    <contour>
      <point x="423" y="0" type="move" name="ogonek"/>
    </contour>
    <contour>
      <point x="279" y="0" type="move" name="bottom"/>
    </contour>
    <contour>
      <point x="266" y="500" type="move" name="top"/>
    </contour>
  </outline>
</glyph>
<glyph name="h" format="1">
  <advance width="578"/>
  <unicode hex="0068"/>
  <outline>
    <contour>
      <point x="86" y="730" type="line"/>
      <point x="86" y="0" type="line"/>
      <point x="102" y="0" type="line"/>
      <point x="102" y="730" type="line"/>
    </contour>
    <contour>
      <point x="185" y="511"/>
      <point x="95" y="424"/>
      <point x="95" y="318" type="curve"/>
      <point x="102" y="302" type="line"/>
      <point x="102" y="406"/>
      <point x="190" y="497"/>
      <point x="307" y="497" type="curve" smooth="yes"/>
      <point x="413" y="497"/>
      <point x="480" y="435"/>
      <point x="480" y="328" type="curve" smooth="yes"/>
      <point x="480" y="1" type="line"/>
      <point x="496" y="1" type="line"/>
      <point x="496" y="330" type="line" smooth="yes"/>
      <point x="496" y="445"/>
      <point x="425" y="511"/>
      <point x="310" y="511" type="curve" smooth="yes"/>
    </contour>
  </outline>
</glyph>
<glyph name="j" format="1">
  <advance width="197"/>
  <unicode hex="006A"/>
  <outline>
    <contour>
      <point x="94" y="500" type="line"/>
      <point x="94" y="-64" type="line" smooth="yes"/>
      <point x="94" y="-147"/>
      <point x="48" y="-201"/>
      <point x="-22" y="-201" type="curve" smooth="yes"/>
      <point x="-46" y="-201"/>
      <point x="-72" y="-194"/>
      <point x="-88" y="-179" type="curve"/>
      <point x="-93" y="-193" type="line"/>
      <point x="-77" y="-207"/>
      <point x="-50" y="-215"/>
      <point x="-22" y="-215" type="curve" smooth="yes"/>
      <point x="58" y="-215"/>
      <point x="110" y="-156"/>
      <point x="110" y="-64" type="curve" smooth="yes"/>
      <point x="110" y="500" type="line"/>
    </contour>
    <contour>
      <point x="88" y="652"/>
      <point x="77" y="641"/>
      <point x="77" y="627" type="curve" smooth="yes"/>
      <point x="77" y="613"/>
      <point x="88" y="602"/>
      <point x="102" y="602" type="curve" smooth="yes"/>
      <point x="116" y="602"/>
      <point x="127" y="613"/>
      <point x="127" y="627" type="curve" smooth="yes"/>
      <point x="127" y="641"/>
      <point x="116" y="652"/>
      <point x="102" y="652" type="curve" smooth="yes"/>
    </contour>
  </outline>
</glyph>
<glyph name="m" format="1">
  <advance width="972"/>
  <unicode hex="006D"/>
  <outline>
    <contour>
      <point x="579" y="512"/>
      <point x="489" y="425"/>
      <point x="489" y="319" type="curve"/>
      <point x="496" y="303" type="line"/>
      <point x="496" y="407"/>
      <point x="584" y="498"/>
      <point x="701" y="498" type="curve" smooth="yes"/>
      <point x="807" y="498"/>
      <point x="874" y="436"/>
      <point x="874" y="329" type="curve" smooth="yes"/>
      <point x="874" y="2" type="line"/>
      <point x="890" y="2" type="line"/>
      <point x="890" y="331" type="line" smooth="yes"/>
      <point x="890" y="446"/>
      <point x="819" y="512"/>
      <point x="704" y="512" type="curve" smooth="yes"/>
    </contour>
    <contour>
      <point x="86" y="500" type="line"/>
      <point x="86" y="301" type="line"/>
      <point x="86" y="0" type="line"/>
      <point x="102" y="0" type="line"/>
      <point x="102" y="334" type="line"/>
      <point x="102" y="341" type="line"/>
      <point x="102" y="500" type="line"/>
    </contour>
    <contour>
      <point x="185" y="510"/>
      <point x="95" y="423"/>
      <point x="95" y="317" type="curve"/>
      <point x="102" y="301" type="line"/>
      <point x="102" y="405"/>
      <point x="190" y="496"/>
      <point x="307" y="496" type="curve" smooth="yes"/>
      <point x="413" y="496"/>
      <point x="480" y="434"/>
      <point x="480" y="327" type="curve" smooth="yes"/>
      <point x="480" y="0" type="line"/>
      <point x="496" y="0" type="line"/>
      <point x="496" y="329" type="line" smooth="yes"/>
      <point x="496" y="444"/>
      <point x="425" y="510"/>
      <point x="310" y="510" type="curve" smooth="yes"/>
    </contour>
  </outline>
</glyph>
<glyph name="p" format="1">
  <advance width="581"/>
  <unicode hex="0070"/>
  <outline>
    <contour>
      <point x="86" y="500" type="line"/>
      <point x="86" y="399" type="line"/>
      <point x="86" y="-210" type="line"/>
      <point x="102" y="-210" type="line"/>
      <point x="102" y="317" type="line"/>
      <point x="102" y="321" type="line"/>
      <point x="102" y="500" type="line"/>
    </contour>
    <component base="bowl" xOffset="659" yOffset="500" xScale="-1" yScale="-1"/>
  </outline>
</glyph>
<glyph name="t" format="1">
  <advance width="339"/>
  <unicode hex="0074"/>
  <outline>
    <contour>
      <point x="116" y="630" type="line"/>
      <point x="117" y="126" type="line" smooth="yes"/>
      <point x="117" y="37"/>
      <point x="155" y="-10"/>
      <point x="236" y="-10" type="curve" smooth="yes"/>
      <point x="276" y="-10"/>
      <point x="312" y="7"/>
      <point x="332" y="28" type="curve"/>
      <point x="324" y="41" type="line"/>
      <point x="300" y="15"/>
      <point x="271" y="4"/>
      <point x="236" y="4" type="curve" smooth="yes"/>
      <point x="164" y="4"/>
      <point x="132" y="46"/>
      <point x="132" y="126" type="curve" smooth="yes"/>
      <point x="132" y="635" type="line"/>
    </contour>
    <contour>
      <point x="16" y="500" type="line"/>
      <point x="16" y="486" type="line"/>
      <point x="325" y="486" type="line"/>
      <point x="325" y="500" type="line"/>
    </contour>
    <contour>
      <point x="124" y="281" type="move" name="center"/>
    </contour>
    <contour>
      <point x="225" y="0" type="move" name="bottom"/>
    </contour>
    <contour>
      <point x="252" y="767" type="move" name="topright"/>
    </contour>
  </outline>
</glyph>
<glyph name="u" format="1">
  <advance width="568"/>
  <unicode hex="0075"/>
  <outline>
    <contour>
      <point x="82" y="500" type="line"/>
      <point x="82" y="167" type="line" smooth="yes"/>
      <point x="82" y="54"/>
      <point x="146" y="-10"/>
      <point x="257" y="-10" type="curve" smooth="yes"/>
      <point x="384" y="-10"/>
      <point x="473" y="77"/>
      <point x="473" y="183" type="curve"/>
      <point x="466" y="196" type="line"/>
      <point x="466" y="122"/>
      <point x="404" y="4"/>
      <point x="260" y="4" type="curve" smooth="yes"/>
      <point x="157" y="4"/>
      <point x="98" y="64"/>
      <point x="98" y="169" type="curve" smooth="yes"/>
      <point x="98" y="500" type="line"/>
    </contour>
    <contour>
      <point x="466" y="500" type="line"/>
      <point x="466" y="199" type="line"/>
      <point x="466" y="165" type="line"/>
      <point x="466" y="0" type="line"/>
      <point x="482" y="0" type="line"/>
      <point x="482" y="199" type="line"/>
      <point x="482" y="500" type="line"/>
    </contour>
    <contour>
      <point x="482" y="0" type="move" name="ogonek"/>
    </contour>
    <contour>
      <point x="283" y="500" type="move" name="top"/>
    </contour>
  </outline>
</glyph>
<glyph name="y" format="1">
  <advance width="457"/>
  <unicode hex="0079"/>
  <outline>
    <contour>
      <point x="432" y="500" type="line"/>
      <point x="251" y="61" type="line"/>
      <point x="234" y="18" type="line"/>
      <point x="216" y="60" type="line"/>
      <point x="31" y="500" type="line"/>
      <point x="13" y="500" type="line"/>
      <point x="171" y="128" type="line"/>
      <point x="226" y="-1" type="line"/>
      <point x="186" y="-98" type="line" smooth="yes"/>
      <point x="153" y="-178"/>
      <point x="118" y="-201"/>
      <point x="66" y="-201" type="curve" smooth="yes"/>
      <point x="38" y="-201"/>
      <point x="11" y="-193"/>
      <point x="-4" y="-170" type="curve"/>
      <point x="-13" y="-183" type="line"/>
      <point x="1" y="-204"/>
      <point x="30" y="-215"/>
      <point x="65" y="-215" type="curve" smooth="yes"/>
      <point x="127" y="-215"/>
      <point x="165" y="-188"/>
      <point x="201" y="-101" type="curve" smooth="yes"/>
      <point x="450" y="500" type="line"/>
    </contour>
    <contour>
      <point x="235" y="500" type="move" name="top"/>
    </contour>
  </outline>
</glyph>
<glyph name="sterling" format="1">
  <advance width="556"/>
  <unicode hex="00A3"/>
  <outline>
    <contour>
      <point x="88" y="317" type="line"/>
      <point x="88" y="303" type="line"/>
      <point x="441" y="303" type="line"/>
      <point x="441" y="317" type="line"/>
    </contour>
    <component base="sterling.part"/>
  </outline>
</glyph>
<glyph name="dieresis" format="1">
  <advance width="550"/>
  <unicode hex="00A8"/>
  <outline>
    <contour>
      <point x="169" y="652"/>
      <point x="158" y="641"/>
      <point x="158" y="627" type="curve" smooth="yes"/>
      <point x="158" y="613"/>
      <point x="169" y="602"/>
      <point x="183" y="602" type="curve" smooth="yes"/>
      <point x="197" y="602"/>
      <point x="208" y="613"/>
      <point x="208" y="627" type="curve" smooth="yes"/>
      <point x="208" y="641"/>
      <point x="197" y="652"/>
      <point x="183" y="652" type="curve" smooth="yes"/>
    </contour>
    <contour>
      <point x="353" y="652"/>
      <point x="342" y="641"/>
      <point x="342" y="627" type="curve" smooth="yes"/>
      <point x="342" y="613"/>
      <point x="353" y="602"/>
      <point x="367" y="602" type="curve" smooth="yes"/>
      <point x="381" y="602"/>
      <point x="392" y="613"/>
      <point x="392" y="627" type="curve" smooth="yes"/>
      <point x="392" y="641"/>
      <point x="381" y="652"/>
      <point x="367" y="652" type="curve" smooth="yes"/>
    </contour>
    <contour>
      <point x="276" y="500" type="move" name="_top"/>
    </contour>
  </outline>
</glyph>
<glyph name="copyright" format="1">
  <advance width="776"/>
  <unicode hex="00A9"/>
  <outline>
    <contour>
      <point x="180" y="670"/>
      <point x="46" y="536"/>
      <point x="46" y="330" type="curve" smooth="yes"/>
      <point x="46" y="124"/>
      <point x="180" y="-10"/>
      <point x="388" y="-10" type="curve" smooth="yes"/>
      <point x="596" y="-10"/>
      <point x="730" y="124"/>
      <point x="730" y="330" type="curve" smooth="yes"/>
      <point x="730" y="536"/>
      <point x="596" y="670"/>
      <point x="388" y="670" type="curve" smooth="yes"/>
    </contour>
    <contour>
      <point x="286" y="513"/>
      <point x="218" y="444"/>
      <point x="218" y="328" type="curve" smooth="yes"/>
      <point x="218" y="212"/>
      <point x="286" y="143"/>
      <point x="400" y="143" type="curve" smooth="yes"/>
      <point x="475" y="143"/>
      <point x="536" y="186"/>
      <point x="554" y="253" type="curve"/>
      <point x="539" y="259" type="line"/>
      <point x="524" y="197"/>
      <point x="469" y="157"/>
      <point x="399" y="157" type="curve" smooth="yes"/>
      <point x="296" y="157"/>
      <point x="234" y="221"/>
      <point x="234" y="328" type="curve" smooth="yes"/>
      <point x="234" y="435"/>
      <point x="296" y="499"/>
      <point x="399" y="499" type="curve" smooth="yes"/>
      <point x="470" y="499"/>
      <point x="516" y="468"/>
      <point x="535" y="406" type="curve"/>
      <point x="549" y="413" type="line"/>
      <point x="527" y="479"/>
      <point x="476" y="513"/>
      <point x="400" y="513" type="curve" smooth="yes"/>
    </contour>
    <contour>
      <point x="587" y="656"/>
      <point x="714" y="529"/>
      <point x="714" y="330" type="curve" smooth="yes"/>
      <point x="714" y="131"/>
      <point x="587" y="4"/>
      <point x="388" y="4" type="curve" smooth="yes"/>
      <point x="189" y="4"/>
      <point x="62" y="131"/>
      <point x="62" y="330" type="curve" smooth="yes"/>
      <point x="62" y="529"/>
      <point x="189" y="656"/>
      <point x="388" y="656" type="curve" smooth="yes"/>
    </contour>
  </outline>
</glyph>
<glyph name="logicalnot" format="1">
  <advance width="553"/>
  <unicode hex="00AC"/>
  <outline>
    <contour>
      <point x="492" y="333" type="line"/>
      <point x="492" y="186" type="line"/>
      <point x="508" y="186" type="line"/>
      <point x="508" y="333" type="line"/>
    </contour>
    <component base="minus"/>
  </outline>
</glyph>
<glyph name="twosuperior" format="1">
  <advance width="265"/>
  <unicode hex="00B2"/>
  <outline>
    <contour>
      <point x="69" y="740"/>
      <point x="25" y="700"/>
      <point x="18" y="631" type="curve"/>
      <point x="33" y="625" type="line"/>
      <point x="37" y="687"/>
      <point x="77" y="726"/>
      <point x="134" y="726" type="curve" smooth="yes"/>
      <point x="202" y="726"/>
      <point x="237" y="693"/>
      <point x="237" y="629" type="curve" smooth="yes"/>
      <point x="237" y="546"/>
      <point x="130" y="488"/>
      <point x="20" y="395" type="curve"/>
      <point x="32" y="387" type="line"/>
      <point x="150" y="481"/>
      <point x="253" y="545"/>
      <point x="253" y="629" type="curve" smooth="yes"/>
      <point x="253" y="703"/>
      <point x="213" y="740"/>
      <point x="134" y="740" type="curve" smooth="yes"/>
    </contour>
    <contour>
      <point x="63" y="395" type="line"/>
      <point x="20" y="395" type="line"/>
      <point x="20" y="381" type="line"/>
      <point x="63" y="381" type="line"/>
      <point x="262" y="381" type="line"/>
      <point x="262" y="395" type="line"/>
    </contour>
  </outline>
</glyph>
<glyph name="uni00B5" format="1">
  <advance width="568"/>
  <unicode hex="00B5"/>
  <outline>
    <contour>
      <point x="165" y="4"/>
      <point x="98" y="63"/>
      <point x="98" y="169" type="curve"/>
      <point x="86" y="167" type="line"/>
      <point x="86" y="54"/>
      <point x="159" y="-10"/>
      <point x="257" y="-10" type="curve" smooth="yes"/>
      <point x="384" y="-10"/>
      <point x="473" y="77"/>
      <point x="473" y="183" type="curve"/>
      <point x="466" y="199" type="line"/>
      <point x="466" y="95"/>
      <point x="379" y="4"/>
      <point x="260" y="4" type="curve" smooth="yes"/>
    </contour>
    <contour>
      <point x="82" y="500" type="line"/>
      <point x="82" y="-210" type="line"/>
      <point x="98" y="-210" type="line"/>
      <point x="98" y="500" type="line"/>
    </contour>
    <contour>
      <point x="466" y="500" type="line"/>
      <point x="466" y="199" type="line"/>
      <point x="466" y="157" type="line"/>
      <point x="466" y="0" type="line"/>
      <point x="482" y="0" type="line"/>
      <point x="482" y="199" type="line"/>
      <point x="482" y="500" type="line"/>
    </contour>
    <contour>
      <point x="567" y="11" type="move" name="ogonek"/>
    </contour>
    <contour>
      <point x="292" y="562" type="move" name="top"/>
    </contour>
  </outline>
</glyph>
<glyph name="paragraph" format="1">
  <advance width="559"/>
  <unicode hex="00B6"/>
  <outline>
    <contour>
      <point x="283" y="660" type="line" smooth="yes"/>
      <point x="145" y="660"/>
      <point x="54" y="579"/>
      <point x="54" y="457" type="curve" smooth="yes"/>
      <point x="54" y="335"/>
      <point x="147" y="254"/>
      <point x="288" y="254" type="curve"/>
      <point x="288" y="-210" type="line"/>
      <point x="304" y="-210" type="line"/>
      <point x="304" y="646" type="line"/>
      <point x="443" y="646" type="line"/>
      <point x="443" y="-210" type="line"/>
      <point x="459" y="-210" type="line"/>
      <point x="459" y="660" type="line"/>
    </contour>
    <contour>
      <point x="288" y="268" type="line"/>
      <point x="157" y="268"/>
      <point x="70" y="343"/>
      <point x="70" y="457" type="curve" smooth="yes"/>
      <point x="70" y="571"/>
      <point x="157" y="646"/>
      <point x="288" y="646" type="curve"/>
    </contour>
  </outline>
</glyph>
<glyph name="Oslash" format="1">
  <advance width="716"/>
  <unicode hex="00D8"/>
  <outline>
    <contour>
      <point x="609" y="690" type="line"/>
      <point x="87" y="-30" type="line"/>
      <point x="107" y="-30" type="line"/>
      <point x="629" y="690" type="line"/>
    </contour>
    <component base="O"/>
  </outline>
</glyph>
<glyph name="idieresis" format="1">
  <advance width="188"/>
  <unicode hex="00EF"/>
  <outline>
    <contour>
      <point x="30" y="652"/>
      <point x="19" y="641"/>
      <point x="19" y="627" type="curve" smooth="yes"/>
      <point x="19" y="613"/>
      <point x="30" y="602"/>
      <point x="44" y="602" type="curve" smooth="yes"/>
      <point x="58" y="602"/>
      <point x="69" y="613"/>
      <point x="69" y="627" type="curve" smooth="yes"/>
      <point x="69" y="641"/>
      <point x="58" y="652"/>
      <point x="44" y="652" type="curve" smooth="yes"/>
    </contour>
    <contour>
      <point x="130" y="652"/>
      <point x="119" y="641"/>
      <point x="119" y="627" type="curve" smooth="yes"/>
      <point x="119" y="613"/>
      <point x="130" y="602"/>
      <point x="144" y="602" type="curve" smooth="yes"/>
      <point x="158" y="602"/>
      <point x="169" y="613"/>
      <point x="169" y="627" type="curve" smooth="yes"/>
      <point x="169" y="641"/>
      <point x="158" y="652"/>
      <point x="144" y="652" type="curve" smooth="yes"/>
    </contour>
    <component base="dotlessi"/>
  </outline>
</glyph>
<glyph name="oslash" format="1">
  <advance width="568"/>
  <unicode hex="00F8"/>
  <outline>
    <contour>
      <point x="501" y="530" type="line"/>
      <point x="58" y="-30" type="line"/>
      <point x="79" y="-30" type="line"/>
      <point x="522" y="530" type="line"/>
    </contour>
    <component base="o"/>
  </outline>
</glyph>
<glyph name="Dcroat" format="1">
  <advance width="685"/>
  <unicode hex="0110"/>
  <outline>
    <contour>
      <point x="-2" y="341" type="line"/>
      <point x="-2" y="327" type="line"/>
      <point x="323" y="327" type="line"/>
      <point x="323" y="341" type="line"/>
    </contour>
    <component base="D"/>
  </outline>
</glyph>
<glyph name="gbreve" format="1">
  <advance width="490"/>
  <unicode hex="011F"/>
  <outline>
    <contour>
      <point x="418" y="592"/>
      <point x="376" y="544"/>
      <point x="376" y="470" type="curve"/>
      <point x="389" y="465" type="line"/>
      <point x="389" y="533"/>
      <point x="426" y="578"/>
      <point x="493" y="578" type="curve"/>
      <point x="488" y="592" type="line"/>
    </contour>
    <component base="gbase" xOffset="-17"/>
    <component base="breve" xOffset="4"/>
    <contour>
      <point x="251" y="500" type="move" name="top"/>
    </contour>
  </outline>
</glyph>
<glyph name="iogonek" format="1">
  <advance width="188"/>
  <unicode hex="012F"/>
  <outline>
    <contour>
      <point x="90" y="5" type="line"/>
      <point x="30" y="-45"/>
      <point x="3" y="-74"/>
      <point x="3" y="-120" type="curve" smooth="yes"/>
      <point x="3" y="-172"/>
      <point x="44" y="-202"/>
      <point x="88" y="-202" type="curve" smooth="yes"/>
      <point x="115" y="-202"/>
      <point x="131" y="-195"/>
      <point x="152" y="-180" type="curve"/>
      <point x="146" y="-167" type="line"/>
      <point x="128" y="-182"/>
      <point x="114" y="-188"/>
      <point x="88" y="-188" type="curve" smooth="yes"/>
      <point x="52" y="-188"/>
      <point x="18" y="-163"/>
      <point x="18" y="-120" type="curve" smooth="yes"/>
      <point x="18" y="-77"/>
      <point x="44" y="-50"/>
      <point x="102" y="0" type="curve"/>
    </contour>
    <component base="i"/>
  </outline>
</glyph>
<glyph name="lacute" format="1">
  <advance width="240"/>
  <unicode hex="013A"/>
  <outline>
    <contour>
      <point x="87" y="793" type="line"/>
      <point x="101" y="793" type="line"/>
      <point x="146" y="930" type="line"/>
      <point x="128" y="930" type="line"/>
    </contour>
    <component base="l"/>
  </outline>
</glyph>
<glyph name="Uogonek" format="1">
  <advance width="698"/>
  <unicode hex="0172"/>
  <outline>
    <contour>
      <point x="430" y="15" type="line"/>
      <point x="322" y="-32"/>
      <point x="289" y="-72"/>
      <point x="289" y="-124" type="curve" smooth="yes"/>
      <point x="289" y="-176"/>
      <point x="329" y="-202"/>
      <point x="377" y="-202" type="curve" smooth="yes"/>
      <point x="418" y="-202"/>
      <point x="438" y="-192"/>
      <point x="454" y="-181" type="curve"/>
      <point x="448" y="-168" type="line"/>
      <point x="434" y="-179"/>
      <point x="414" y="-188"/>
      <point x="377" y="-188" type="curve" smooth="yes"/>
      <point x="337" y="-188"/>
      <point x="304" y="-167"/>
      <point x="304" y="-124" type="curve" smooth="yes"/>
      <point x="304" y="-75"/>
      <point x="337" y="-38"/>
      <point x="445" y="8" type="curve"/>
    </contour>
    <component base="U"/>
  </outline>
</glyph>
<glyph name="circumflex" format="1">
  <advance width="500"/>
  <unicode hex="02C6"/>
  <outline>
    <component base="caron" yOffset="1308" yScale="-1"/>
    <contour>
      <point x="250" y="500" type="move" name="_top"/>
    </contour>
  </outline>
</glyph>
<glyph name="dotaccent" format="1">
  <advance width="550"/>
  <unicode hex="02D9"/>
  <outline>
    <contour>
      <point x="261" y="652"/>
      <point x="250" y="641"/>
      <point x="250" y="627" type="curve" smooth="yes"/>
      <point x="250" y="613"/>
      <point x="261" y="602"/>
      <point x="275" y="602" type="curve" smooth="yes"/>
      <point x="289" y="602"/>
      <point x="300" y="613"/>
      <point x="300" y="627" type="curve" smooth="yes"/>
      <point x="300" y="641"/>
      <point x="289" y="652"/>
      <point x="275" y="652" type="curve" smooth="yes"/>
    </contour>
    <contour>
      <point x="275" y="500" type="move" name="_top"/>
    </contour>
  </outline>
</glyph>
<glyph name="perthousand" format="1">
  <advance width="1137"/>
  <unicode hex="2030"/>
  <outline>
    <contour>
      <point x="847" y="333"/>
      <point x="806" y="251"/>
      <point x="806" y="166" type="curve" smooth="yes"/>
      <point x="806" y="81"/>
      <point x="848" y="0"/>
      <point x="946" y="0" type="curve" smooth="yes"/>
      <point x="1044" y="0"/>
      <point x="1084" y="81"/>
      <point x="1084" y="166" type="curve" smooth="yes"/>
      <point x="1084" y="251"/>
      <point x="1044" y="333"/>
      <point x="946" y="333" type="curve" smooth="yes"/>
    </contour>
    <contour>
      <point x="1031" y="319"/>
      <point x="1068" y="246"/>
      <point x="1068" y="166" type="curve" smooth="yes"/>
      <point x="1068" y="86"/>
      <point x="1031" y="14"/>
      <point x="946" y="14" type="curve" smooth="yes"/>
      <point x="860" y="14"/>
      <point x="822" y="86"/>
      <point x="822" y="166" type="curve" smooth="yes"/>
      <point x="822" y="246"/>
      <point x="859" y="319"/>
      <point x="946" y="319" type="curve" smooth="yes"/>
    </contour>
    <component base="percent"/>
  </outline>
</glyph>
<glyph name="guilsinglleft" format="1">
  <advance width="228"/>
  <unicode hex="2039"/>
  <outline>
    <contour>
      <point x="170" y="441" type="line"/>
      <point x="31" y="245" type="line"/>
      <point x="170" y="49" type="line"/>
      <point x="191" y="49" type="line"/>
      <point x="51" y="245" type="line"/>
      <point x="191" y="441" type="line"/>
    </contour>
  </outline>
</glyph>
<glyph name="uni20BA" format="1">
  <advance width="582"/>
  <unicode hex="20BA"/>
  <outline>
    <contour>
      <point x="524" y="257" type="line"/>
      <point x="524" y="105"/>
      <point x="436" y="14"/>
      <point x="289" y="14" type="curve" smooth="yes"/>
      <point x="170" y="14" type="line"/>
      <point x="170" y="0" type="line"/>
      <point x="298" y="0" type="line" smooth="yes"/>
      <point x="449" y="0"/>
      <point x="539" y="96"/>
      <point x="539" y="257" type="curve"/>
    </contour>
    <contour>
      <point x="162" y="660" type="line"/>
      <point x="162" y="0" type="line"/>
      <point x="178" y="0" type="line"/>
      <point x="178" y="660" type="line"/>
    </contour>
    <contour>
      <point x="45" y="261" type="line"/>
      <point x="45" y="246" type="line"/>
      <point x="405" y="352" type="line"/>
      <point x="405" y="367" type="line"/>
    </contour>
    <contour>
      <point x="45" y="391" type="line"/>
      <point x="45" y="376" type="line"/>
      <point x="405" y="483" type="line"/>
      <point x="405" y="498" type="line"/>
    </contour>
  </outline>
</glyph>
<glyph name="uni2206" format="1">
  <advance width="593"/>
  <unicode hex="2206"/>
  <outline>
    <contour>
      <point x="571" y="0" type="line"/>
      <point x="571" y="14" type="line"/>
      <point x="22" y="14" type="line"/>
      <point x="22" y="0" type="line"/>
    </contour>
    <contour>
      <point x="571" y="14" type="line"/>
      <point x="309" y="660" type="line"/>
      <point x="292" y="660" type="line"/>
      <point x="555" y="10" type="line"/>
    </contour>
    <contour>
      <point x="302" y="660" type="line"/>
      <point x="286" y="660" type="line"/>
      <point x="22" y="14" type="line"/>
      <point x="38" y="10" type="line"/>
    </contour>
  </outline>
</glyph>
<glyph name="lozenge" format="1">
  <advance width="553"/>
  <unicode hex="25CA"/>
  <outline>
    <contour>
      <point x="269" y="660" type="line"/>
      <point x="455" y="330" type="line"/>
      <point x="473" y="330" type="line"/>
      <point x="287" y="660" type="line"/>
    </contour>
    <contour>
      <point x="80" y="330" type="line"/>
      <point x="264" y="0" type="line"/>
      <point x="282" y="0" type="line"/>
      <point x="98" y="330" type="line"/>
    </contour>
    <contour>
      <point x="455" y="330" type="line"/>
      <point x="269" y="0" type="line"/>
      <point x="287" y="0" type="line"/>
      <point x="473" y="330" type="line"/>
    </contour>
    <contour>
      <point x="264" y="660" type="line"/>
      <point x="80" y="330" type="line"/>
      <point x="98" y="330" type="line"/>
      <point x="282" y="660" type="line"/>
    </contour>
  </outline>
</glyph>
<glyph name="lslash.ss02" format="1">
  <advance width="188"/>
  <outline>
    <contour>
      <point x="97" y="343" type="line"/>
      <point x="175" y="400" type="line"/>
      <point x="175" y="417" type="line"/>
      <point x="95" y="359" type="line"/>
      <point x="13" y="300" type="line"/>
      <point x="13" y="283" type="line"/>
    </contour>
    <component base="l.ss02"/>
  </outline>
</glyph>
<glyph name="sterling.part" format="1">
  <advance width="556"/>
  <outline>
    <contour>
      <point x="214" y="670"/>
      <point x="137" y="598"/>
      <point x="137" y="488" type="curve" smooth="yes"/>
      <point x="137" y="333"/>
      <point x="283" y="301"/>
      <point x="283" y="154" type="curve" smooth="yes"/>
      <point x="283" y="71"/>
      <point x="215" y="4"/>
      <point x="120" y="4" type="curve" smooth="yes"/>
      <point x="72" y="4"/>
      <point x="41" y="24"/>
      <point x="41" y="56" type="curve" smooth="yes"/>
      <point x="41" y="89"/>
      <point x="75" y="111"/>
      <point x="128" y="111" type="curve" smooth="yes"/>
      <point x="252" y="111"/>
      <point x="269" y="-10"/>
      <point x="402" y="-10" type="curve" smooth="yes"/>
      <point x="478" y="-10"/>
      <point x="531" y="27"/>
      <point x="531" y="115" type="curve"/>
      <point x="517" y="115" type="line"/>
      <point x="516" y="43"/>
      <point x="477" y="4"/>
      <point x="402" y="4" type="curve" smooth="yes"/>
      <point x="274" y="4"/>
      <point x="260" y="125"/>
      <point x="127" y="125" type="curve" smooth="yes"/>
      <point x="65" y="125"/>
      <point x="25" y="98"/>
      <point x="25" y="56" type="curve" smooth="yes"/>
      <point x="25" y="16"/>
      <point x="62" y="-10"/>
      <point x="120" y="-10" type="curve" smooth="yes"/>
      <point x="220" y="-10"/>
      <point x="299" y="61"/>
      <point x="299" y="156" type="curve" smooth="yes"/>
      <point x="299" y="300"/>
      <point x="153" y="344"/>
      <point x="153" y="488" type="curve" smooth="yes"/>
      <point x="153" y="590"/>
      <point x="221" y="656"/>
      <point x="329" y="656" type="curve" smooth="yes"/>
      <point x="416" y="656"/>
      <point x="479" y="601"/>
      <point x="487" y="519" type="curve"/>
      <point x="502" y="525" type="line"/>
      <point x="493" y="613"/>
      <point x="427" y="670"/>
      <point x="329" y="670" type="curve" smooth="yes"/>
    </contour>
  </outline>
</glyph>
